<svg xmlns="http://www.w3.org/2000/svg" viewBox="0 0 1200 430" role="img" aria-labelledby="title description">
  <title id="title">Pad-Lattice architecture</title>
  <desc id="description">Interactive Codex, non-interactive Codex, and other agent integrations communicate through a local JSON-line Unix socket. The daemon runtime owns transport and MIDI while the deterministic control plane manages sessions, selection, leases, and targeted actions. Surface views pass through the visual protocol and a device profile to a MIDI grid controller, while physical actions return to the selected agent.</desc>
  <defs>
    <marker id="arrow" viewBox="0 0 10 10" refX="8" refY="5" markerWidth="6" markerHeight="6" orient="auto-start-reverse">
      <path d="M0 0L10 5L0 10Z" fill="#78909b"/>
    </marker>
    <marker id="return-arrow" viewBox="0 0 10 10" refX="8" refY="5" markerWidth="6" markerHeight="6" orient="auto-start-reverse">
      <path d="M0 0L10 5L0 10Z" fill="#b64141"/>
    </marker>
  </defs>

  <rect width="1200" height="430" fill="#ffffff"/>
  <g font-family="Arial">
    <text x="24" y="24" fill="#49616c" font-size="13" font-weight="700">AGENT INTEGRATIONS</text>
    <text x="310" y="24" fill="#49616c" font-size="13" font-weight="700">LOCAL CONTROL PLANE</text>
    <text x="680" y="24" fill="#49616c" font-size="13" font-weight="700">SEMANTIC TRANSLATION</text>
    <text x="970" y="24" fill="#49616c" font-size="13" font-weight="700">PHYSICAL SURFACE</text>

    <g>
      <rect x="24" y="42" width="230" height="82" rx="6" fill="#f2f7fb" stroke="#5e91b5" stroke-width="2"/>
      <rect x="24" y="42" width="7" height="82" rx="3" fill="#315f82"/>
      <text x="44" y="69" fill="#315f82" font-size="15" font-weight="700">Interactive Codex</text>
      <text x="44" y="92" fill="#536871" font-size="13">Hooks + leased launcher</text>
      <text x="44" y="112" fill="#536871" font-size="13">state · approvals · cleanup</text>

      <rect x="24" y="145" width="230" height="82" rx="6" fill="#f3faf5" stroke="#6aa57e" stroke-width="2"/>
      <rect x="24" y="145" width="7" height="82" rx="3" fill="#276749"/>
      <text x="44" y="172" fill="#276749" font-size="15" font-weight="700">Non-interactive Codex</text>
      <text x="44" y="195" fill="#536871" font-size="13">codex exec --json adapter</text>
      <text x="44" y="215" fill="#536871" font-size="13">state · targeted Stop</text>

      <rect x="24" y="248" width="230" height="82" rx="6" fill="#fff9f4" stroke="#c47a45" stroke-width="2"/>
      <rect x="24" y="248" width="7" height="82" rx="3" fill="#b85c1e"/>
      <text x="44" y="275" fill="#8c4518" font-size="15" font-weight="700">Other agent integrations</text>
      <text x="44" y="298" fill="#536871" font-size="13">Small protocol clients</text>
      <text x="44" y="318" fill="#536871" font-size="13">no MIDI knowledge required</text>
    </g>

    <path d="M254 83H282M254 186H282M254 289H282" fill="none" stroke="#78909b" stroke-width="2"/>
    <path d="M282 83V289M282 186H306" fill="none" stroke="#78909b" stroke-width="2" marker-end="url(#arrow)"/>

    <g>
      <rect x="310" y="42" width="320" height="330" rx="6" fill="#f4f8fa" stroke="#2e7289" stroke-width="2"/>
      <rect x="332" y="62" width="276" height="58" rx="6" fill="#fff9f4" stroke="#c47a45" stroke-width="1.5"/>
      <text x="470" y="87" fill="#8c4518" font-size="16" font-weight="700" text-anchor="middle">Wire Protocol 1</text>
      <text x="470" y="108" fill="#60747d" font-size="13" text-anchor="middle">local Unix-domain socket</text>

      <text x="332" y="145" fill="#174e62" font-family="monospace" font-size="15" font-weight="700">daemon_runtime + control_plane</text>

      <rect x="332" y="166" width="276" height="52" rx="6" fill="#ffffff" stroke="#9db2bb" stroke-width="1.5"/>
      <circle cx="353" cy="192" r="12" fill="#315f82"/>
      <text x="349" y="197" fill="#ffffff" font-size="13" font-weight="700">1</text>
      <text x="378" y="188" fill="#314c57" font-size="14" font-weight="700">Session registry</text>
      <text x="378" y="207" fill="#60747d" font-size="12">identity · state · slot · accent</text>

      <rect x="332" y="230" width="276" height="52" rx="6" fill="#ffffff" stroke="#9db2bb" stroke-width="1.5"/>
      <circle cx="353" cy="256" r="12" fill="#276749"/>
      <text x="349" y="261" fill="#ffffff" font-size="13" font-weight="700">2</text>
      <text x="378" y="252" fill="#314c57" font-size="14" font-weight="700">Selection + leases</text>
      <text x="378" y="271" fill="#60747d" font-size="12">focus · labels · lifecycle cleanup</text>

      <rect x="332" y="294" width="276" height="52" rx="6" fill="#ffffff" stroke="#9db2bb" stroke-width="1.5"/>
      <circle cx="353" cy="320" r="12" fill="#b64141"/>
      <text x="349" y="325" fill="#ffffff" font-size="13" font-weight="700">3</text>
      <text x="378" y="316" fill="#314c57" font-size="14" font-weight="700">Targeted action router</text>
      <text x="378" y="335" fill="#60747d" font-size="12">capability gates · never broadcast</text>
    </g>

    <path d="M630 206H652V83H676" fill="none" stroke="#78909b" stroke-width="2" marker-end="url(#arrow)"/>

    <g>
      <rect x="680" y="42" width="240" height="82" rx="6" fill="#f2f7fb" stroke="#5e91b5" stroke-width="2"/>
      <text x="702" y="72" fill="#315f82" font-family="monospace" font-size="16" font-weight="700">SurfaceView</text>
      <text x="702" y="96" fill="#536871" font-size="13">selected state + capabilities</text>
      <text x="702" y="115" fill="#60747d" font-size="12">hardware-independent intent</text>

      <path d="M800 124V141" fill="none" stroke="#78909b" stroke-width="2" marker-end="url(#arrow)"/>

      <rect x="680" y="145" width="240" height="82" rx="6" fill="#faf5fc" stroke="#9670ad" stroke-width="2"/>
      <text x="702" y="175" fill="#6b3f8c" font-size="16" font-weight="700">Visual Protocol 1</text>
      <text x="702" y="199" fill="#536871" font-size="13">glyphs + semantic light tokens</text>
      <text x="702" y="218" fill="#60747d" font-size="12">identity · state · actions · overflow</text>

      <path d="M800 227V244" fill="none" stroke="#78909b" stroke-width="2" marker-end="url(#arrow)"/>

      <rect x="680" y="248" width="240" height="82" rx="6" fill="#fff9f4" stroke="#c47a45" stroke-width="2"/>
      <text x="702" y="278" fill="#8c4518" font-size="16" font-weight="700">Profile + trusted driver</text>
      <text x="702" y="302" fill="#536871" font-size="13">MIDI addresses + static palette</text>
      <text x="702" y="321" fill="#60747d" font-size="12">device-specific translation</text>
    </g>

    <path d="M920 289H944V144H966" fill="none" stroke="#78909b" stroke-width="2" marker-end="url(#arrow)"/>

    <g>
      <rect x="970" y="42" width="206" height="330" rx="6" fill="#f4f8fa" stroke="#2e7289" stroke-width="2"/>
      <rect x="990" y="65" width="166" height="166" rx="8" fill="#111827" stroke="#374151" stroke-width="2"/>
      <g>
        <rect x="1008" y="83" width="24" height="24" rx="5" fill="#3674e8"/>
        <rect x="1046" y="83" width="24" height="24" rx="5" fill="#101418" stroke="#303943"/>
        <rect x="1084" y="83" width="24" height="24" rx="5" fill="#d39a18"/>
        <rect x="1122" y="83" width="16" height="24" rx="5" fill="#00aebb"/>

        <rect x="1008" y="121" width="24" height="24" rx="5" fill="#101418" stroke="#303943"/>
        <rect x="1046" y="121" width="24" height="24" rx="5" fill="#35a94a"/>
        <rect x="1084" y="121" width="24" height="24" rx="5" fill="#101418" stroke="#303943"/>
        <rect x="1122" y="121" width="16" height="24" rx="5" fill="#c83ec9"/>

        <rect x="1008" y="159" width="24" height="24" rx="5" fill="#cf3f42"/>
        <rect x="1046" y="159" width="24" height="24" rx="5" fill="#101418" stroke="#303943"/>
        <rect x="1084" y="159" width="24" height="24" rx="5" fill="#3674e8"/>
        <rect x="1122" y="159" width="16" height="24" rx="5" fill="#70b92d"/>

        <rect x="1008" y="197" width="24" height="16" rx="5" fill="#101418" stroke="#303943"/>
        <rect x="1046" y="197" width="24" height="16" rx="5" fill="#d39a18"/>
        <rect x="1084" y="197" width="24" height="16" rx="5" fill="#35a94a"/>
        <rect x="1122" y="197" width="16" height="16" rx="5" fill="#3788d8"/>
      </g>

      <text x="990" y="261" fill="#174e62" font-size="16" font-weight="700">MIDI grid controller</text>
      <text x="990" y="285" fill="#536871" font-size="13">LED output + physical input</text>
      <line x1="990" y1="302" x2="1156" y2="302" stroke="#b8cbd2"/>
      <text x="990" y="329" fill="#314c57" font-size="13" font-weight="700">One shared USB-MIDI device</text>
      <text x="990" y="350" fill="#60747d" font-size="12">owned only by the daemon</text>
    </g>

    <path d="M970 350H650V320H612" fill="none" stroke="#b64141" stroke-width="2" stroke-dasharray="7 6" marker-end="url(#return-arrow)"/>
    <text x="680" y="370" fill="#9b3030" font-size="12" font-weight="700">SELECTION + TARGETED ACTIONS</text>

    <line x1="24" y1="399" x2="76" y2="399" stroke="#78909b" stroke-width="2" marker-end="url(#arrow)"/>
    <text x="90" y="404" fill="#60747d" font-size="12">state + light output</text>
    <line x1="255" y1="399" x2="307" y2="399" stroke="#b64141" stroke-width="2" stroke-dasharray="7 6" marker-end="url(#return-arrow)"/>
    <text x="321" y="404" fill="#60747d" font-size="12">selection + targeted actions</text>
  </g>
</svg>
